<mxfile host="app.diagrams.net" modified="2024-05-22T09:43:32.411Z" agent="Mozilla/5.0 (Windows NT 10.0; Win64; x64) AppleWebKit/537.36 (KHTML, like Gecko) Chrome/125.0.0.0 Safari/537.36" version="24.4.4" etag="vR9rPOhDy4YyfLhJwl0k" type="device">
  <diagram id="UqVhCwuL2qdCLJgCUi1_" name="Page-1">
    <mxGraphModel dx="1434" dy="738" grid="1" gridSize="10" guides="1" tooltips="1" connect="1" arrows="1" fold="1" page="1" pageScale="1" pageWidth="827" pageHeight="1169" math="0" shadow="0">
      <root>
        <mxCell id="0" />
        <mxCell id="1" parent="0" />
        <mxCell id="7og_ta3tvpZKxO91lGnz-1" value="" style="whiteSpace=wrap;html=1;aspect=fixed;fillColor=#ffe6cc;strokeColor=#d79b00;rounded=1;glass=1;shadow=1;" vertex="1" parent="1">
          <mxGeometry x="90" y="305" width="280" height="280" as="geometry" />
        </mxCell>
        <mxCell id="7og_ta3tvpZKxO91lGnz-2" value="Welcome to Gamers Gateway" style="text;html=1;align=center;verticalAlign=middle;whiteSpace=wrap;rounded=0;" vertex="1" parent="1">
          <mxGeometry x="180" y="330" width="100" height="30" as="geometry" />
        </mxCell>
        <mxCell id="7og_ta3tvpZKxO91lGnz-3" value="Got gamer block?" style="text;html=1;align=center;verticalAlign=middle;whiteSpace=wrap;rounded=0;" vertex="1" parent="1">
          <mxGeometry x="155" y="370" width="150" height="30" as="geometry" />
        </mxCell>
        <mxCell id="7og_ta3tvpZKxO91lGnz-9" style="edgeStyle=orthogonalEdgeStyle;rounded=0;orthogonalLoop=1;jettySize=auto;html=1;" edge="1" parent="1" source="7og_ta3tvpZKxO91lGnz-5" target="7og_ta3tvpZKxO91lGnz-7">
          <mxGeometry relative="1" as="geometry" />
        </mxCell>
        <mxCell id="7og_ta3tvpZKxO91lGnz-5" value="Click to solve" style="rounded=0;whiteSpace=wrap;html=1;fillColor=#dae8fc;strokeColor=#6c8ebf;" vertex="1" parent="1">
          <mxGeometry x="180" y="410" width="100" height="30" as="geometry" />
        </mxCell>
        <mxCell id="7og_ta3tvpZKxO91lGnz-7" value="" style="whiteSpace=wrap;html=1;aspect=fixed;fillColor=#ffe6cc;strokeColor=#d79b00;rounded=1;glass=1;shadow=1;" vertex="1" parent="1">
          <mxGeometry x="560" y="305" width="280" height="280" as="geometry" />
        </mxCell>
        <mxCell id="7og_ta3tvpZKxO91lGnz-11" value="The Game generator" style="text;html=1;align=center;verticalAlign=middle;whiteSpace=wrap;rounded=0;" vertex="1" parent="1">
          <mxGeometry x="650" y="320" width="120" height="30" as="geometry" />
        </mxCell>
        <mxCell id="7og_ta3tvpZKxO91lGnz-12" value="Enter Favourite genre" style="text;html=1;align=center;verticalAlign=middle;whiteSpace=wrap;rounded=0;" vertex="1" parent="1">
          <mxGeometry x="655" y="350" width="110" height="50" as="geometry" />
        </mxCell>
      </root>
    </mxGraphModel>
  </diagram>
</mxfile>
